<svg xmlns="http://www.w3.org/2000/svg" width="708" height="632" viewBox="0 0 531 474"><g id="graph0" class="graph" transform="translate(18 455.64)"><g id="node1" class="node"><title>cd</title><path fill="#06b6d4" fill-opacity=".094" stroke="#06b6d4" stroke-width="1.6" d="M416.95-437.64H295.14c-6 0-12 6-12 12v17.52c0 6 6 12 12 12h121.81c6 0 12-6 12-12v-17.52c0-6-6-12-12-12"/><text xml:space="preserve" x="356.05" y="-412.98" fill="#06b6d4" font-family="Helvetica,sans-Serif" font-size="13" text-anchor="middle">cd into a directory</text></g><g id="node2" class="node"><title>q1</title><path fill="#06b6d4" fill-opacity=".094" stroke="#06b6d4" stroke-width="1.6" d="m356.05-341.12-83.19 39.2 83.19 39.2 83.19-39.2z"/><text xml:space="preserve" x="356.05" y="-305.82" fill="#06b6d4" font-family="Helvetica,sans-Serif" font-size="13" text-anchor="middle">PWD under</text><text xml:space="preserve" x="356.05" y="-290.22" fill="#06b6d4" font-family="Helvetica,sans-Serif" font-size="13" text-anchor="middle">~/acme/ ?</text></g><g id="edge1" class="edge"><title>cd-&gt;q1</title><path fill="none" stroke="#06b6d4" stroke-width="1.5" d="M356.05-395.42v42.25"/><path fill="#06b6d4" stroke="#06b6d4" stroke-width="1.5" d="m359.2-353.23-3.15 9-3.15-9z"/></g><g id="node3" class="node"><title>q2</title><path fill="#06b6d4" fill-opacity=".094" stroke="#06b6d4" stroke-width="1.6" d="m200.05-195.52-83.57 39.2 83.57 39.2 83.57-39.2z"/><text xml:space="preserve" x="200.05" y="-160.22" fill="#06b6d4" font-family="Helvetica,sans-Serif" font-size="13" text-anchor="middle">PWD under</text><text xml:space="preserve" x="200.05" y="-144.62" fill="#06b6d4" font-family="Helvetica,sans-Serif" font-size="13" text-anchor="middle">~/nrjdalal/ ?</text></g><g id="edge3" class="edge"><title>q1-&gt;q2</title><path fill="none" stroke="#06b6d4" stroke-width="1.5" d="M328.16-275.25c-25.77 23.72-64.18 59.08-92.22 84.89"/><path fill="#06b6d4" stroke="#06b6d4" stroke-width="1.5" d="m238.38-188.33-8.75 3.78 4.49-8.41z"/><text xml:space="preserve" x="288.84" y="-225.82" fill="#06b6d4" font-family="Helvetica,sans-Serif" font-size="11" text-anchor="middle">no</text></g><g id="node4" class="node"><title>acme</title><path fill="#06b6d4" fill-opacity=".18" stroke="#06b6d4" stroke-width="1.6" d="M482.6-181.28H335.49c-6 0-12 6-12 12v25.92c0 6 6 12 12 12H482.6c6 0 12-6 12-12v-25.92c0-6-6-12-12-12"/><text xml:space="preserve" x="345.09" y="-157.62" fill="#06b6d4" font-family="Helvetica,sans-Serif" font-size="13" font-weight="bold">resolve acme tokens</text><text xml:space="preserve" x="372.21" y="-146.42" fill="#06b6d4" font-family="Helvetica,sans-Serif" font-size="11">GitHub + Slack</text></g><g id="edge2" class="edge"><title>q1-&gt;acme</title><path fill="none" stroke="#06b6d4" stroke-width="1.5" d="M368.21-267.98c8.33 22.59 19.38 52.52 27.88 75.56"/><path fill="#06b6d4" stroke="#06b6d4" stroke-width="1.5" d="m398.97-193.71.16 9.53-6.07-7.35z"/><text xml:space="preserve" x="392.69" y="-225.82" fill="#06b6d4" font-family="Helvetica,sans-Serif" font-size="11" text-anchor="middle">yes</text></g><g id="node5" class="node"><title>nrj</title><path fill="#06b6d4" fill-opacity=".18" stroke="#06b6d4" stroke-width="1.6" d="M172.09-49.92H12c-6 0-12 6-12 12V-12C0-6 6 0 12 0h160.09c6 0 12-6 12-12v-25.92c0-6-6-12-12-12"/><text xml:space="preserve" x="21.6" y="-26.26" fill="#06b6d4" font-family="Helvetica,sans-Serif" font-size="13" font-weight="bold">resolve nrjdalal tokens</text><text xml:space="preserve" x="55.21" y="-15.06" fill="#06b6d4" font-family="Helvetica,sans-Serif" font-size="11">GitHub + Slack</text></g><g id="edge4" class="edge"><title>q2-&gt;nrj</title><path fill="none" stroke="#06b6d4" stroke-width="1.5" d="M176.61-127.25c-16.72 20.03-39.27 47.03-56.87 68.12"/><path fill="#06b6d4" stroke="#06b6d4" stroke-width="1.5" d="m122.16-57.12-8.18 4.89 3.35-8.93z"/><text xml:space="preserve" x="151.37" y="-80.22" fill="#06b6d4" font-family="Helvetica,sans-Serif" font-size="11" text-anchor="middle">yes</text></g><g id="node6" class="node"><title>none</title><path fill="#06b6d4" fill-opacity=".051" stroke="#06b6d4" stroke-dasharray="5,2" stroke-width="1.6" d="M380.16-45.72H235.93c-6 0-12 6-12 12v17.52c0 6 6 12 12 12h144.23c6 0 12-6 12-12v-17.52c0-6-6-12-12-12"/><text xml:space="preserve" x="308.05" y="-21.06" fill="#06b6d4" font-family="Helvetica,sans-Serif" font-size="13" text-anchor="middle">leave all tokens unset</text></g><g id="edge5" class="edge"><title>q2-&gt;none</title><path fill="none" stroke="#06b6d4" stroke-width="1.5" d="M223.48-127.25c17.89 21.42 42.44 50.83 60.48 72.44"/><path fill="#06b6d4" stroke="#06b6d4" stroke-width="1.5" d="m286.21-57.03 3.35 8.93-8.19-4.89z"/><text xml:space="preserve" x="269.84" y="-80.22" fill="#06b6d4" font-family="Helvetica,sans-Serif" font-size="11" text-anchor="middle">no</text></g></g></svg>