<svg xmlns="http://www.w3.org/2000/svg" width="530pt" height="252" viewBox="0 0 530 189"><g id="graph0" class="graph" transform="translate(18 170.8)"><g id="node1" class="node"><title>work</title><path fill="#06b6d4" fill-opacity=".094" stroke="#06b6d4" stroke-width="1.6" d="M126.93-152.8H23.21c-6 0-12 6-12 12v28.8c0 6 6 12 12 12h103.72c6 0 12-6 12-12v-28.8c0-6-6-12-12-12"/><text xml:space="preserve" x="32.81" y="-127.7" fill="#06b6d4" font-family="Helvetica,sans-Serif" font-size="13" font-weight="bold">Work session</text><text xml:space="preserve" x="48.01" y="-116.5" fill="#06b6d4" font-family="Helvetica,sans-Serif" font-size="11">~/acme/api</text></g><g id="node3" class="node"><title>acct</title><path fill="#06b6d4" fill-opacity=".18" stroke="#06b6d4" stroke-width="2.2" d="M481.86-77.8h-129c-6 0-12 6-12 12V-37c0 6 6 12 12 12h129c6 0 12-6 12-12v-28.8c0-6-6-12-12-12"/><text xml:space="preserve" x="362.46" y="-52.7" fill="#06b6d4" font-family="Helvetica,sans-Serif" font-size="13" font-weight="bold">gh active account</text><text xml:space="preserve" x="377.3" y="-41.5" fill="#06b6d4" font-family="Helvetica,sans-Serif" font-size="11">one global value</text></g><g id="edge1" class="edge"><title>work-&gt;acct</title><path fill="none" stroke="#06b6d4" stroke-width="1.5" d="M139.69-119.84c46.94 5.64 112.13 15.16 168.17 29.44 9.09 2.32 18.48 5.09 27.77 8.08"/><path fill="#06b6d4" stroke="#06b6d4" stroke-width="1.5" d="m336.34-85.4 7.56 5.82-9.54.16z"/><text xml:space="preserve" x="245.5" y="-116.63" fill="#06b6d4" font-family="Helvetica,sans-Serif" font-size="11" text-anchor="middle">①  switch → acme</text></g><g id="node2" class="node"><title>personal</title><path fill="#06b6d4" fill-opacity=".094" stroke="#06b6d4" stroke-width="1.6" d="M138.14-52.8H12c-6 0-12 6-12 12V-12C0-6 6 0 12 0h126.14c6 0 12-6 12-12v-28.8c0-6-6-12-12-12"/><text xml:space="preserve" x="21.6" y="-27.7" fill="#06b6d4" font-family="Helvetica,sans-Serif" font-size="13" font-weight="bold">Personal session</text><text xml:space="preserve" x="40.67" y="-16.5" fill="#06b6d4" font-family="Helvetica,sans-Serif" font-size="11">~/nrjdalal/blog</text></g><g id="edge2" class="edge"><title>personal-&gt;acct</title><path fill="none" stroke="#06b6d4" stroke-width="1.5" d="M150.75-20.06c45.57 2.55 104.91 3.53 157.11-3.14 6.84-.87 13.86-2.05 20.89-3.42"/><path fill="#06b6d4" stroke="#06b6d4" stroke-width="1.5" d="m328.1-29.7 9.45 1.24-8.16 4.93z"/><text xml:space="preserve" x="245.5" y="-26.5" fill="#06b6d4" font-family="Helvetica,sans-Serif" font-size="11" text-anchor="middle">②  switch → nrjdalal</text></g><g id="edge3" class="edge"><title>acct-&gt;work</title><path fill="none" stroke="#06b6d4" stroke-dasharray="5,2" stroke-width="2" d="M339.97-51.51c-46.18-1.79-105.79-7.17-156.83-21.69-17.36-4.94-35.28-12.66-51.38-20.7"/><path fill="#06b6d4" stroke="#06b6d4" stroke-width="2" d="m130.72-90.9-6.56-6.92 9.45 1.32z"/><text xml:space="preserve" x="245.5" y="-76.5" fill="#06b6d4" font-family="Helvetica,sans-Serif" font-size="11" text-anchor="middle">③  call runs as nrjdalal  ✗</text></g></g></svg>