<svg xmlns="http://www.w3.org/2000/svg" width="562pt" height="200pt" viewBox="0 0 562 200"><g id="graph0" class="graph" transform="translate(18 181.8)"><g id="node1" class="node"><title>work</title><path fill="#06b6d4" fill-opacity=".094" stroke="#06b6d4" stroke-width="1.6" d="M90.82-54.1H18.49c-6 0-12 6-12 12v20.4c0 6 6 12 12 12h72.33c6 0 12-6 12-12v-20.4c0-6-6-12-12-12"/><text xml:space="preserve" x="28.09" y="-29" fill="#06b6d4" font-family="Helvetica,sans-Serif" font-size="13" font-weight="bold">~/acme/*</text></g><g id="node2" class="node"><title>work_id</title><path fill="#06b6d4" fill-opacity=".18" stroke="#06b6d4" stroke-width="1.6" d="M501.18-63.8H253.35c-6 0-12 6-12 12V-12c0 6 6 12 12 12h247.83c6 0 12-6 12-12v-39.8c0-6-6-12-12-12"/><text xml:space="preserve" x="349.8" y="-38.7" fill="#06b6d4" font-family="Helvetica,sans-Serif" font-size="13">gh: </text><text xml:space="preserve" x="371.48" y="-38.7" fill="#06b6d4" font-family="Helvetica,sans-Serif" font-size="13" font-weight="bold">acme</text><text xml:space="preserve" x="262.95" y="-27.5" fill="#06b6d4" font-family="Helvetica,sans-Serif" font-size="11">MCP: linear-acme · notion-acme · slack-acme</text><text xml:space="preserve" x="322.16" y="-16.5" fill="#06b6d4" font-family="Helvetica,sans-Serif" font-size="11">git: neeraj@acme.com</text></g><g id="edge1" class="edge"><title>work-&gt;work_id</title><path fill="none" stroke="#06b6d4" stroke-width="1.5" d="M103.31-31.9h126.05"/><path fill="#06b6d4" stroke="#06b6d4" stroke-width="1.5" d="m229.31-35.05 9 3.15-9 3.15z"/><text xml:space="preserve" x="168.91" y="-35.2" fill="#06b6d4" font-family="Helvetica,sans-Serif" font-size="11" text-anchor="middle">resolves to</text></g><g id="node3" class="node"><title>personal</title><path fill="#06b6d4" fill-opacity=".094" stroke="#06b6d4" stroke-width="1.6" d="M97.31-154.1H12c-6 0-12 6-12 12v20.4c0 6 6 12 12 12h85.31c6 0 12-6 12-12v-20.4c0-6-6-12-12-12"/><text xml:space="preserve" x="21.6" y="-129" fill="#06b6d4" font-family="Helvetica,sans-Serif" font-size="13" font-weight="bold">~/nrjdalal/*</text></g><g id="node4" class="node"><title>personal_id</title><path fill="#06b6d4" fill-opacity=".18" stroke="#06b6d4" stroke-width="1.6" d="M514.03-163.8H240.5c-6 0-12 6-12 12v39.8c0 6 6 12 12 12h273.53c6 0 12-6 12-12v-39.8c0-6-6-12-12-12"/><text xml:space="preserve" x="343.3" y="-138.7" fill="#06b6d4" font-family="Helvetica,sans-Serif" font-size="13">gh: </text><text xml:space="preserve" x="364.99" y="-138.7" fill="#06b6d4" font-family="Helvetica,sans-Serif" font-size="13" font-weight="bold">nrjdalal</text><text xml:space="preserve" x="250.1" y="-127.5" fill="#06b6d4" font-family="Helvetica,sans-Serif" font-size="11">MCP: linear-nrjdalal · notion-nrjdalal · slack-nrjdalal</text><text xml:space="preserve" x="318.18" y="-116.5" fill="#06b6d4" font-family="Helvetica,sans-Serif" font-size="11">git: admin@nrjdalal.com</text></g><g id="edge2" class="edge"><title>personal-&gt;personal_id</title><path fill="none" stroke="#06b6d4" stroke-width="1.5" d="M110.04-131.9h107.01"/><path fill="#06b6d4" stroke="#06b6d4" stroke-width="1.5" d="m216.64-135.05 9 3.15-9 3.15z"/><text xml:space="preserve" x="168.91" y="-135.2" fill="#06b6d4" font-family="Helvetica,sans-Serif" font-size="11" text-anchor="middle">resolves to</text></g></g></svg>