<svg xmlns="http://www.w3.org/2000/svg" width="559pt" height="476pt" viewBox="0 0 559 476"><g id="graph0" class="graph" transform="translate(4 472)"><path fill="none" d="M-4 4v-476h558.91V4z"/><g id="node1" class="node"><title>@api/hono</title><ellipse cx="96.91" cy="-378" fill="none" stroke="#f97316" rx="96.91" ry="18"/><text xml:space="preserve" x="96.91" y="-373.8" fill="#f97316" font-family="Times,serif" font-size="14" text-anchor="middle">@api/hono (1.37 MB)</text></g><g id="node2" class="node"><title>@packages/auth</title><ellipse cx="344.91" cy="-306" fill="none" stroke="#f97316" rx="116.2" ry="18"/><text xml:space="preserve" x="344.91" y="-301.8" fill="#f97316" font-family="Times,serif" font-size="14" text-anchor="middle">@packages/auth (1.29 KB)</text></g><g id="edge1" class="edge"><title>@api/hono-&gt;@packages/auth</title><path fill="none" stroke="#f97316" d="M148.6-362.41c38.1 10.75 90.2 25.46 131.15 37.02"/><path fill="#f97316" stroke="#f97316" d="m280.59-328.79 8.67 6.08-10.58.65z"/></g><g id="node3" class="node"><title>@packages/env</title><ellipse cx="238.91" cy="-162" fill="none" stroke="#f97316" rx="113.52" ry="18"/><text xml:space="preserve" x="238.91" y="-157.8" fill="#f97316" font-family="Times,serif" font-size="14" text-anchor="middle">@packages/env (4.51 KB)</text></g><g id="edge2" class="edge"><title>@api/hono-&gt;@packages/env</title><path fill="none" stroke="#f97316" d="M104.72-359.64c14.15 30.53 45.91 95.2 82.19 143.64 7.3 9.75 16.3 19.52 24.75 27.98"/><path fill="#f97316" stroke="#f97316" d="m214.03-190.6 4.72 9.48-9.61-4.47z"/></g><g id="node4" class="node"><title>@packages/tsconfig</title><ellipse cx="380.91" cy="-90" fill="none" stroke="#f97316" rx="89.11" ry="18"/><text xml:space="preserve" x="380.91" y="-85.8" fill="#f97316" font-family="Times,serif" font-size="14" text-anchor="middle">@packages/tsconfig</text></g><g id="edge3" class="edge"><title>@api/hono-&gt;@packages/tsconfig</title><path fill="none" stroke="#f97316" d="M92.13-359.72C81.48-317.08 60.86-205.84 115.91-144c22.53 25.3 103.95 38.92 170.66 45.99"/><path fill="#f97316" stroke="#f97316" d="m286.89-101.5 9.59 4.5-10.3 2.47z"/></g><g id="edge5" class="edge"><title>@packages/auth-&gt;@packages/env</title><path fill="none" stroke="#f97316" d="M304.18-288.89c-16.72 8.57-34.81 20.73-46.27 36.89-12.45 17.55-17.03 41.61-18.59 60.29"/><path fill="#f97316" stroke="#f97316" d="m242.82-191.63-4.06 9.78-2.93-10.18z"/></g><g id="edge6" class="edge"><title>@packages/auth-&gt;@packages/tsconfig</title><path fill="none" stroke="#f97316" d="M430.52-293.52c24.47 7.69 48.51 20.43 63.39 41.52 34.67 49.13-31.81 106.84-76.7 138.09"/><path fill="#f97316" stroke="#f97316" d="m419.22-111.05-10.24 2.72 6.31-8.51z"/></g><g id="node5" class="node"><title>@packages/db</title><ellipse cx="375.91" cy="-234" fill="none" stroke="#f97316" rx="109.23" ry="18"/><text xml:space="preserve" x="375.91" y="-229.8" fill="#f97316" font-family="Times,serif" font-size="14" text-anchor="middle">@packages/db (5.44 KB)</text></g><g id="edge4" class="edge"><title>@packages/auth-&gt;@packages/db</title><path fill="none" stroke="#f97316" d="M352.57-287.7c3.38 7.63 7.44 16.78 11.21 25.3"/><path fill="#f97316" stroke="#f97316" d="m366.87-264.05.85 10.56-7.25-7.72z"/></g><g id="edge9" class="edge"><title>@packages/env-&gt;@packages/tsconfig</title><path fill="none" stroke="#f97316" d="M272.56-144.41c19.65 9.68 44.63 22 65.65 32.36"/><path fill="#f97316" stroke="#f97316" d="m339.7-115.22 7.42 7.56-10.52-1.28z"/></g><g id="node6" class="node"><title>zerostarter</title><ellipse cx="380.91" cy="-18" fill="none" stroke="#f97316" rx="51.78" ry="18"/><text xml:space="preserve" x="380.91" y="-13.8" fill="#f97316" font-family="Times,serif" font-size="14" text-anchor="middle">zerostarter</text></g><g id="edge10" class="edge"><title>@packages/tsconfig-&gt;zerostarter</title><path fill="none" stroke="#f97316" d="M380.91-71.7v24.16"/><path fill="#f97316" stroke="#f97316" d="m384.41-47.62-3.5 10-3.5-10z"/></g><g id="edge7" class="edge"><title>@packages/db-&gt;@packages/env</title><path fill="none" stroke="#f97316" d="M343.44-216.41c-18.46 9.43-41.8 21.36-61.74 31.55"/><path fill="#f97316" stroke="#f97316" d="m283.47-181.83-10.5 1.43 7.31-7.67z"/></g><g id="edge8" class="edge"><title>@packages/db-&gt;@packages/tsconfig</title><path fill="none" stroke="#f97316" d="M376.52-215.59c.85 23.98 2.38 67.45 3.39 96.17"/><path fill="#f97316" stroke="#f97316" d="m383.4-119.74-3.14 10.12-3.85-9.87z"/></g><g id="node7" class="node"><title>@web/next</title><ellipse cx="261.91" cy="-450" fill="none" stroke="#f97316" rx="103.34" ry="18"/><text xml:space="preserve" x="261.91" y="-445.8" fill="#f97316" font-family="Times,serif" font-size="14" text-anchor="middle">@web/next (88.79 MB)</text></g><g id="edge11" class="edge"><title>@web/next-&gt;@api/hono</title><path fill="none" stroke="#f97316" d="M224.06-432.94c-23.48 9.96-53.86 22.85-79.03 33.53"/><path fill="#f97316" stroke="#f97316" d="m146.56-396.26-10.58.68 7.84-7.12z"/></g><g id="edge12" class="edge"><title>@web/next-&gt;@packages/auth</title><path fill="none" stroke="#f97316" d="M271.92-431.87c14.21 24.31 40.37 69.05 57.2 97.86"/><path fill="#f97316" stroke="#f97316" d="m332.08-335.9 2.02 10.4-8.07-6.86z"/></g><g id="edge13" class="edge"><title>@web/next-&gt;@packages/env</title><path fill="none" stroke="#f97316" d="M254.08-431.66c-10.25 23.72-27.67 67.9-34.17 107.66-7.56 46.26 2.76 100.47 10.89 132.71"/><path fill="#f97316" stroke="#f97316" d="m234.11-192.49-.83 10.56-5.94-8.77z"/></g><g id="edge14" class="edge"><title>@web/next-&gt;@packages/tsconfig</title><path fill="none" stroke="#f97316" d="M354.15-441.69c84.58 12.35 196.76 45.52 196.76 134.69v74c0 61.21-65.72 101.2-115.44 122.7"/><path fill="#f97316" stroke="#f97316" d="m437.11-107.19-10.58.61 7.89-7.08z"/></g></g></svg>